HIERARCHY
ROOT Hips
{
  OFFSET -89.2799 50.1639 -436.387
  CHANNELS 6 Xposition Yposition Zposition Zrotation Xrotation Yrotation
  JOINT Spine
  {
    OFFSET 0 0 0
    CHANNELS 3 Zrotation Xrotation Yrotation
    JOINT Spine1
    {
      OFFSET 19 0 0
      CHANNELS 3 Zrotation Xrotation Yrotation
      JOINT Neck
      {
        OFFSET 22.5 0.6 0
        CHANNELS 3 Zrotation Xrotation Yrotation
        JOINT Head
        {
          OFFSET 14 0.0308777 0
          CHANNELS 3 Zrotation Xrotation Yrotation
          End Site
          {
            OFFSET 17 0 0
          }
        }
      }
      JOINT LeftShoulder
      {
        OFFSET 19.8 3.7 4.3
        CHANNELS 3 Zrotation Xrotation Yrotation
        JOINT LeftArm
        {
          OFFSET 8 0 0
          CHANNELS 3 Zrotation Xrotation Yrotation
          JOINT LeftForeArm
          {
            OFFSET 15.2 0 0
            CHANNELS 3 Zrotation Xrotation Yrotation
            JOINT LeftHand
            {
              OFFSET 17.8 0 0
              CHANNELS 3 Zrotation Xrotation Yrotation
              End Site
              {
                OFFSET 7.2 0 0
              }
            }
          }
        }
      }
      JOINT RightShoulder
      {
        OFFSET 19.8 3.7 -4.3
        CHANNELS 3 Zrotation Xrotation Yrotation
        JOINT RightArm
        {
          OFFSET 8 0 0.151654
          CHANNELS 3 Zrotation Xrotation Yrotation
          JOINT RightForeArm
          {
            OFFSET 15.2 0 0
            CHANNELS 3 Zrotation Xrotation Yrotation
            JOINT RightHand
            {
              OFFSET 17.8 0 0
              CHANNELS 3 Zrotation Xrotation Yrotation
              End Site
              {
                OFFSET 7.2 0 0
              }
            }
          }
        }
      }
    }
  }
  JOINT LeftUpLeg
  {
    OFFSET 5.98425 -7.666 4.78879
    CHANNELS 3 Zrotation Xrotation Yrotation
    JOINT LeftLeg
    {
      OFFSET 16 0 0
      CHANNELS 3 Zrotation Xrotation Yrotation
      JOINT LeftFoot
      {
        OFFSET 18 0 0
        CHANNELS 3 Zrotation Xrotation Yrotation
        End Site
        {
          OFFSET 0 -10.8 0
        }
      }
    }
  }
  JOINT RightUpLeg
  {
    OFFSET 5.98425 -7.66598 -4.78879
    CHANNELS 3 Zrotation Xrotation Yrotation
    JOINT RightLeg
    {
      OFFSET 16 0 0
      CHANNELS 3 Zrotation Xrotation Yrotation
      JOINT RightFoot
      {
        OFFSET 18 0 0
        CHANNELS 3 Zrotation Xrotation Yrotation
        End Site
        {
          OFFSET 0 -10.8 0
        }
      }
    }
  }
  JOINT Tail
  {
    OFFSET 6.83696 -0.722574 0
    CHANNELS 3 Zrotation Xrotation Yrotation
    JOINT Tail1
    {
      OFFSET 12 0 0
      CHANNELS 3 Zrotation Xrotation Yrotation
      End Site
      {
        OFFSET 12 0 0
      }
    }
  }
}
MOTION
Frames:	16
Frame Time:	0.0166667
-26.3147 44.8967 -10.3696 1.14533 21.4364 -47.2495 -164.007 6.37265 -8.00944 11.4971 2.906 60.6028 12.6962 -8.10106 58.1457 -121.122 38.3175 122.518 -112.872 -41.1993 -135.97 125.483 -31.0575 -132.793 -61.8518 13.7086 6.08018 -20.0325 4.14037 -19.5652 80.1373 -20.768 37.2718 41.0837 -32.0627 -51.3904 -68.6004 -26.6849 -2.87265 -7.21281 10.9677 -39.884 -125.132 -15.0272 -28.7209 82.3325 5.46432 14.5255 29.8702 -2.68394 -5.41579 -135.001 10.5816 2.15985 78.4721 -6.89117 -10.6518 45.0748 1.15722 -0.392285 0.380338 -29.8674 43.8293 14.4229 -0.642986 5.58917 
-27.4901 44.7903 -10.6078 2.9602 19.7102 -50.9752 -165.017 6.1863 -6.56898 11.9085 2.57547 59.5898 13.3434 -7.22649 57.5151 -122.586 36.6135 122.917 -112.936 -41.5569 -135.522 119.105 -31.8643 -135.931 -65.4474 13.1591 7.08857 -20.4251 4.8465 -21.7589 80.1128 -21.0046 38.0953 50.5827 -27.6668 -47.815 -75.3517 -20.7263 -5.7532 -4.06172 9.84406 -42.5124 -125.949 -16.6586 -27.6126 82.8254 3.08075 15.2349 30.3113 -2.46968 -5.07087 -136.498 10.0954 3.12232 79.1461 -7.57979 -10.8514 44.773 1.23982 -0.265661 -1.97946 -30.3463 41.9592 13.1166 0.0839415 4.73133 
-28.6157 44.6568 -10.7853 4.77399 18.4779 -54.897 -166.215 6.20806 -5.177 12.4474 2.56503 58.4645 13.895 -6.68778 56.716 -122.702 35.5081 123.154 -112.914 -41.6099 -135.383 112.737 -31.2671 -138.071 -67.8399 12.3712 7.65261 -20.8588 5.16455 -22.5752 80.0858 -21.1076 38.358 59.3686 -21.8768 -43.9228 -80.87 -11.5191 -8.66325 0.318188 6.98862 -40.8107 -126.754 -18.0339 -27.1057 83.564 1.11986 15.8207 30.7039 -2.30435 -4.81456 -137.257 10.4857 4.12725 78.9172 -7.38631 -11.3851 46.9497 1.37575 -0.268879 -3.39327 -31.2326 41.2151 12.0756 0.832694 4.16648 
-29.6758 44.5521 -10.8559 6.57784 17.8301 -59.2966 -167.091 6.37644 -4.40336 12.9305 2.85491 57.5173 13.9495 -6.21227 55.9163 -122.175 35.5398 123.427 -112.809 -41.5088 -135.309 106.406 -29.0184 -139.165 -69.0801 10.7231 8.0951 -21.1728 5.15251 -22.1518 80.0879 -21.1053 38.3615 66.4765 -15.3685 -40.8937 -84.4834 -1.65883 -11.9881 3.24505 4.56778 -35.9831 -127.338 -19.5299 -27.7133 84.0909 0.244649 16.2233 31.5398 -2.30683 -4.78523 -136.537 11.879 4.75743 76.7928 -4.47716 -12.1133 52.0272 1.46279 -0.54386 -3.39199 -32.3133 41.7506 11.4009 1.5361 3.9028 
-30.6675 44.4638 -10.9001 8.3126 17.4286 -64.2906 -167.618 6.61425 -4.4188 13.1291 3.238 56.8995 13.8403 -6.11799 55.2754 -121.495 35.6425 123.607 -112.64 -41.2807 -135.293 101.229 -26.4164 -139.774 -69.3738 9.23331 8.48939 -21.294 5.02736 -21.4335 80.0138 -21.3296 38.8429 72.1504 -9.11334 -38.8229 -86.1509 6.53499 -15.683 2.27895 3.62266 -28.6809 -127.744 -21.2801 -29.0835 84.5457 -0.332065 16.769 32.3233 -2.35886 -4.82397 -134.334 12.8315 4.63525 73.2943 -1.81922 -12.8064 55.8746 1.61978 -0.688474 -2.05269 -33.1328 43.5864 10.9835 2.13276 3.96597 
-31.5767 44.3694 -10.9557 10.1883 17.0944 -69.559 -168.06 7.06458 -4.87255 13.2097 3.84657 56.7104 13.5865 -6.47107 54.5803 -120.878 35.5676 123.61 -112.407 -41.0928 -135.062 98.009 -24.7426 -139.826 -68.6039 8.3388 8.10553 -20.884 4.96478 -21.1026 79.622 -22.1854 40.019 76.0797 -4.90176 -37.7614 -85.949 12.7727 -19.0883 0.507619 2.92476 -21.1216 -128.351 -22.7778 -30.6879 85.2666 -1.24181 17.4076 33.1123 -2.38335 -4.84203 -131.245 13.5523 4.29985 69.0091 -5.77878 -14.4407 54.5613 2.48363 0.274125 -0.299518 -34.2728 46.1628 11.0625 2.6572 4.09656 
-32.4235 44.2924 -11.0792 11.7292 16.4769 -74.9751 -168.654 7.291 -5.41573 13.3517 4.26305 56.4143 13.3438 -6.85592 54.0908 -120.569 35.4557 123.583 -112.02 -40.7977 -134.639 96.6516 -24.0003 -139.411 -66.6314 8.44253 6.52141 -20.1905 4.8745 -20.8487 79.1672 -23.1618 41.2002 78.0658 -3.00068 -37.1414 -85.3726 14.9922 -20.8211 -2.69281 2.46382 -14.585 -128.937 -24.1653 -31.6932 86.0107 -2.66362 18.2268 34.5694 -2.38502 -4.84873 -129.024 14.2745 4.3512 65.3814 -8.94552 -16.4619 52.8545 3.3694 1.27421 1.53758 -35.2317 49.271 11.4065 3.16628 4.32352 
-33.2631 44.2895 -11.2636 12.6458 15.748 -80.4226 -168.796 7.24768 -5.98066 13.0467 4.19851 56.0272 13.3233 -7.39323 54.0936 -120.719 35.3298 123.344 -111.596 -40.2627 -134.521 96.2026 -23.4187 -138.733 -63.9569 8.96857 4.12885 -19.0264 4.58177 -20.1279 78.9155 -23.8832 42.3895 78.3348 -2.39958 -38.0419 -83.2302 13.8826 -20.1835 -4.34469 1.98269 -10.3206 -128.622 -25.509 -31.1537 86.373 -4.53244 18.823 36.2791 -2.35878 -4.80731 -127.954 14.1883 4.89403 63.2484 -9.03077 -17.5886 53.5831 3.94953 1.73335 3.81769 -35.1729 52.4933 11.5652 3.68155 4.54168 
-34.0838 44.2963 -11.5116 13.5657 15.1527 -85.9487 -168.626 7.30355 -6.50823 12.5599 4.17793 55.4777 13.3546 -8.36118 54.3783 -121.214 34.951 122.881 -111.248 -39.6354 -134.742 96.6261 -23.2013 -138.349 -60.7741 9.3394 1.46668 -17.347 4.13431 -19.073 78.7619 -24.351 43.1673 77.4036 -1.81308 -40.9056 -78.2403 7.40906 -15.5483 -4.74803 1.53519 -8.0723 -128.356 -26.1405 -30.2508 86.7666 -5.56257 18.62 38.9819 -2.4396 -4.90566 -127.444 13.513 4.66298 61.8753 -11.2371 -17.6706 54.1281 4.52419 2.23925 6.33983 -34.9737 55.3923 11.7143 4.26748 4.64544 
-34.8628 44.3049 -11.8573 14.704 14.3442 -91.7266 -168.863 7.42617 -6.79788 12.4345 4.41348 54.1646 13.4713 -9.72172 55.0544 -121.583 34.4113 122.411 -110.929 -39.0635 -134.944 98.2593 -23.5399 -138.074 -56.5976 9.88101 -1.42189 -15.9443 3.71041 -17.9591 78.9393 -24.2449 43.6582 70.3393 -5.76907 -43.6426 -70.1837 -2.83698 -5.95053 -6.02941 1.23968 -6.67168 -128.449 -26.2752 -29.5156 87.1564 -5.22959 17.8359 41.2568 -2.55532 -5.04624 -127.638 12.2882 2.80223 61.4505 -13.0819 -16.124 54.6189 4.72727 2.39234 8.66002 -35.1517 58.2564 12.0351 4.9465 4.75593 
-35.6128 44.3764 -12.2727 15.7613 13.357 -97.6382 -168.945 7.59282 -7.22604 12.2394 4.70153 52.8795 13.321 -11.4516 55.9799 -121.798 34.0682 121.907 -110.705 -38.5586 -135.273 100.571 -24.528 -137.969 -52.3668 10.36 -4.44067 -14.0507 3.21413 -16.6132 79.4032 -23.7129 44.1731 57.1484 -13.1587 -46.6336 -57.4557 -11.2855 6.29201 -10.3133 0.294728 -1.9251 -127.942 -26.4764 -28.3687 87.0924 -3.26737 16.5685 41.9819 -2.7032 -5.21904 -128.005 11.03 1.00054 61.029 -14.9073 -14.4848 55.7648 4.92468 2.44889 10.9038 -34.8138 60.5511 12.1509 5.64319 5.14814 
-36.346 44.4361 -12.8283 16.8591 12.2071 -103.639 -168.937 7.86304 -7.5471 12.3108 5.23008 51.4442 12.6593 -13.5345 56.9661 -122.007 33.7735 121.534 -110.675 -38.3514 -135.567 103.394 -26.6412 -137.999 -48.1692 10.6573 -7.465 -11.953 2.73148 -15.2613 79.7438 -23.1743 44.087 46.8227 -18.3316 -48.1419 -50.307 -17.4135 11.2474 -18.446 -0.551002 2.92561 -127.031 -25.7978 -27.1112 86.7533 1.56079 14.8988 42.894 -3.07163 -5.68453 -128.152 10.2684 -0.48913 60.5266 -17.0003 -13.4412 57.0209 5.24211 2.59882 13.0823 -34.0103 62.2391 12.0443 6.30787 5.60752 
-37.0332 44.4179 -13.5283 17.8528 10.8826 -109.593 -169.365 8.03336 -7.47489 13.1458 5.92226 49.5925 11.7541 -15.4826 57.8331 -122.553 33.5285 121.407 -110.673 -38.4154 -135.448 107.117 -29.5983 -137.916 -43.3562 10.305 -9.85605 -9.71765 2.31513 -14.0329 79.9317 -22.6736 43.3397 46.8155 -19.5395 -47.2611 -56.0507 -18.897 7.85752 -21.0216 -0.857803 4.60179 -126.036 -24.0877 -25.3062 86.8224 8.23251 13.0085 43.2681 -3.56225 -6.3254 -128.285 9.85821 -1.70393 60.1632 -18.8329 -12.757 57.8854 5.47061 2.71413 14.9147 -33.2543 63.3266 12.5006 7.12501 5.82101 
-37.6438 44.3315 -14.3389 18.6164 9.68202 -115.331 -169.5 8.16354 -8.05891 13.7311 6.49102 49.0302 10.513 -17.1961 57.8307 -123.108 33.421 121.297 -110.676 -38.4588 -135.379 110.426 -33.7156 -138.965 -41.1729 9.19218 -9.76933 -6.28798 1.86161 -13.2707 79.6724 -22.8482 42.6272 46.5127 -21.8038 -47.8453 -59.6391 -17.2586 7.96895 -17.9931 -1.29303 5.45453 -124.985 -21.6448 -22.8959 88.3109 14.888 11.0037 40.993 -4.00395 -7.00383 -128.588 9.19081 -2.99317 60.9436 -20.309 -11.6769 57.9108 5.54888 2.77543 16.567 -32.2057 63.3031 13.1908 8.0174 5.88951 
-38.1412 44.1414 -15.3019 18.9482 8.44593 -120.558 -169.524 8.14389 -8.69406 13.6095 6.51771 49.3303 9.25511 -18.2675 57.1618 -122.91 33.5521 121.147 -110.73 -38.5571 -135.34 112.689 -38.5929 -140.96 -42.6837 4.95085 -6.96652 -0.646913 1.44628 -12.7248 79.2505 -23.3423 42.2135 45.0775 -24.795 -47.9085 -61.3307 -18.0555 7.73478 -18.1833 -1.39412 6.07255 -124.564 -18.6142 -19.8897 91.1536 20.5709 8.7772 36.8839 -4.33809 -7.63298 -129.493 8.24509 -3.98019 62.8312 -21.1922 -10.437 56.7932 5.53311 2.87173 17.3261 -31.0604 61.4283 14.0932 9.05631 6.24659 
-38.5558 43.9157 -16.373 19.3252 6.87337 -125.335 -169.462 7.98895 -9.01452 13.2197 6.26294 49.1922 8.30704 -18.2051 56.4619 -122.202 33.9458 121.189 -110.832 -39.0438 -134.738 116.555 -43.1983 -141.424 -44.3617 -3.58364 -3.01805 6.90607 1.18548 -11.5241 79.2029 -23.3601 42.043 43.5201 -27.8095 -48.1391 -62.4458 -18.5548 6.94073 -19.2573 -1.56604 6.9046 -125.237 -15.4604 -17.6629 95.2823 23.2949 6.36216 33.0404 -4.41591 -7.928 -130.071 7.76048 -4.48801 64.089 -22.4375 -9.9298 55.629 5.66283 3.1269 17.5963 -30.3884 58.4244 15.0998 10.1753 6.34356 
